<?xml version="1.0" standalone="no"?>
<!DOCTYPE svg PUBLIC "-//W3C//DTD SVG 20010904//EN"
 "http://www.w3.org/TR/2001/REC-SVG-20010904/DTD/svg10.dtd">
<svg version="1.0" xmlns="http://www.w3.org/2000/svg"
 width="500.000000pt" height="500.000000pt" viewBox="0 0 500.000000 500.000000"
 preserveAspectRatio="xMidYMid meet">

<g transform="translate(0.000000,500.000000) scale(0.100000,-0.100000)"
fill="#000000" stroke="none">
<path d="M2433 4486 c-41 -19 -63 -62 -63 -127 0 -45 4 -55 34 -85 19 -19 43
-34 55 -34 25 0 26 -10 6 -78 -15 -49 -18 -52 -56 -58 -82 -13 -115 -72 -63
-113 19 -15 25 -27 22 -48 -3 -27 -5 -28 -65 -31 -67 -3 -81 -18 -44 -44 18
-13 14 -20 -71 -118 -247 -287 -599 -613 -930 -864 -43 -32 -78 -63 -78 -68 0
-6 7 -4 16 3 9 7 23 14 31 15 22 4 100 59 158 114 28 25 75 66 105 90 182 146
564 517 718 698 52 61 102 112 110 112 29 0 7 -77 -39 -138 -183 -244 -547
-603 -853 -842 -68 -53 -103 -86 -93 -88 24 -5 132 75 237 175 30 28 73 66 95
83 151 118 566 553 633 663 11 19 12 14 8 -41 -7 -78 -10 -84 -114 -212 -91
-112 -486 -512 -570 -576 -159 -124 -219 -184 -179 -184 17 0 226 190 441 400
157 153 288 295 378 410 l28 35 -6 -55 c-9 -78 -22 -104 -100 -200 -77 -96
-450 -472 -495 -499 -16 -10 -58 -45 -92 -78 -34 -32 -77 -70 -95 -83 -47 -35
-24 -51 25 -18 106 72 595 559 697 695 22 29 41 52 42 50 1 -1 -9 -87 -22
-192 -12 -104 -28 -235 -34 -290 -19 -169 -18 -165 -45 -165 -24 0 -25 3 -25
55 0 50 2 55 21 52 12 -1 24 4 27 12 2 8 0 11 -5 8 -6 -4 -18 2 -28 13 -10 11
-24 20 -32 20 -16 0 -16 5 -1 29 16 26 3 51 -26 51 -28 0 -40 -24 -25 -52 8
-15 7 -22 -5 -31 -14 -11 -46 -86 -46 -109 0 -6 7 -5 15 2 8 7 15 19 15 26 0
8 3 14 8 14 4 0 7 -24 7 -53 -1 -45 -4 -52 -22 -55 -25 -4 -53 42 -62 103 -6
41 -32 58 -53 37 -13 -13 0 -52 17 -52 11 0 11 -8 -2 -47 -21 -63 -26 -68 -78
-83 -25 -7 -45 -17 -45 -21 0 -5 -10 -9 -21 -9 -25 0 -173 -62 -273 -115 -38
-19 -73 -34 -78 -33 -13 5 -10 23 4 23 6 0 12 8 14 18 1 9 -2 15 -7 11 -5 -3
-10 2 -10 10 -3 40 -18 64 -42 71 -20 6 -81 33 -131 58 -11 5 -44 11 -73 13
-42 3 -52 1 -47 -8 5 -8 0 -7 -11 2 -10 8 -16 10 -12 4 8 -14 -20 -27 -35 -17
-7 3 -8 1 -4 -5 6 -11 -6 -16 -26 -13 -5 0 -8 -3 -8 -9 0 -5 -6 -10 -13 -10
-19 0 -47 -33 -47 -56 0 -10 -5 -26 -10 -34 -7 -12 -12 -12 -22 -2 -10 10 -10
15 2 22 12 7 12 12 3 21 -10 10 -14 6 -19 -19 -4 -18 -11 -32 -17 -32 -5 0 -7
-14 -4 -35 l6 -35 -72 -2 -72 -2 70 -6 c53 -5 59 -7 27 -8 -28 -1 -41 -6 -36
-13 3 -6 16 -8 28 -5 11 3 28 1 36 -5 12 -8 10 -9 -7 -4 -28 8 -31 -11 -4 -20
15 -4 21 -17 23 -48 3 -35 7 -42 28 -47 23 -6 22 -7 -12 -14 -21 -4 -38 -11
-38 -16 0 -6 -5 -10 -11 -10 -8 0 -10 16 -6 50 7 59 -5 70 -53 50 -29 -12 -29
-14 -32 -94 -3 -75 -5 -81 -25 -84 -18 -3 -23 2 -23 17 0 14 -6 21 -18 21 -31
0 -183 -20 -245 -32 -58 -11 -63 -10 -128 22 -26 13 -39 -24 -39 -112 0 -97 7
-112 43 -103 19 5 28 2 36 -14 6 -11 36 -37 66 -57 58 -38 126 -112 164 -179
31 -53 61 -175 61 -247 0 -54 1 -58 24 -58 13 0 28 -6 34 -13 9 -10 4 -13 -21
-14 -18 0 -67 -4 -111 -8 -78 -8 -78 -8 -67 13 17 32 45 44 77 32 31 -12 41
-8 21 9 -13 10 -43 14 -77 9 -14 -2 -50 -33 -50 -43 0 -3 0 -10 0 -17 0 -9 -3
-9 -11 -1 -16 16 7 51 61 94 44 36 50 49 21 49 -21 0 -146 -121 -138 -134 1
-2 -2 -8 -7 -13 -5 -4 -6 -3 -3 4 4 6 2 13 -5 15 -8 3 -4 13 11 29 12 13 27
32 32 42 15 26 -18 22 -42 -5 l-18 -23 -1 43 c0 38 5 48 40 79 49 44 73 80 64
95 -5 7 -24 -8 -53 -41 l-47 -53 2 68 c1 38 2 72 3 75 1 4 13 18 27 32 32 32
23 55 -11 33 -24 -16 -24 -16 -27 32 -2 33 -8 48 -19 50 -13 2 -15 -9 -11 -84
4 -83 4 -86 -15 -76 -11 6 -25 18 -33 26 -14 18 -40 21 -40 6 0 -12 30 -43 64
-65 20 -13 26 -26 26 -52 l0 -34 -35 27 c-37 28 -53 27 -40 -3 5 -10 7 -22 6
-26 -1 -5 3 -6 8 -3 15 10 61 -34 61 -58 0 -12 -3 -25 -6 -29 -6 -6 -72 38
-86 58 -5 6 -8 5 -8 -3 0 -7 -4 -10 -10 -7 -19 12 -10 -33 20 -91 16 -32 30
-62 30 -66 0 -4 -26 -9 -58 -11 -31 -2 99 -4 290 -5 l347 -2 -24 25 c-30 29
-31 37 -6 59 19 17 19 17 14 -2 -4 -15 0 -20 14 -19 11 1 17 -4 16 -13 -2 -9
3 -6 13 7 16 22 44 21 44 -1 0 -7 -9 -22 -20 -34 l-21 -22 163 0 c150 0 161 1
140 16 -12 8 -22 26 -22 40 0 30 13 31 32 2 16 -24 38 -17 38 13 0 17 3 18 20
9 25 -14 25 -35 0 -60 l-20 -20 1738 2 c955 1 1712 4 1682 7 -30 3 -54 9 -52
13 2 4 11 27 21 50 10 24 21 57 24 73 4 17 4 25 1 19 -3 -7 -14 -10 -25 -7
-13 4 -30 -4 -50 -23 l-29 -28 0 39 c0 32 6 43 41 73 28 24 37 38 30 45 -8 8
-20 2 -41 -18 l-30 -29 0 35 c0 28 8 43 40 74 22 21 40 43 40 47 0 16 -25 7
-52 -19 l-28 -27 0 87 c0 47 -4 88 -9 92 -15 8 -20 -8 -22 -64 -2 -47 -4 -50
-19 -36 -9 8 -25 15 -35 15 -16 0 -14 -6 13 -33 30 -31 32 -38 32 -102 0 -67
0 -68 -20 -50 -11 10 -17 22 -13 28 3 5 2 7 -4 4 -5 -4 -20 5 -32 19 -16 19
-26 23 -33 16 -13 -13 14 -59 38 -69 7 -3 11 -9 8 -14 -3 -5 1 -9 9 -9 25 0
47 -35 47 -75 0 -36 -1 -37 -18 -22 -19 18 -52 23 -52 9 0 -5 13 -21 29 -36
18 -17 27 -34 24 -44 -5 -11 -3 -13 7 -7 9 5 11 4 6 -3 -13 -21 -24 -13 -60
41 -37 55 -84 97 -111 97 -26 0 -17 -19 24 -48 44 -31 76 -78 59 -88 -6 -4
-15 0 -19 9 -14 24 -74 41 -99 27 -29 -16 -25 -34 6 -26 27 7 64 0 64 -13 0
-13 -115 -3 -151 13 l-34 14 30 1 30 1 1 78 c1 42 7 97 14 122 30 113 106 219
205 284 30 20 60 46 66 57 8 16 17 19 38 14 l29 -6 4 98 c3 68 1 104 -8 116
-7 12 -14 15 -19 8 -3 -6 -17 -11 -31 -11 -13 0 -24 -5 -24 -11 0 -12 -40 -9
-165 9 -125 19 -175 23 -175 14 0 -5 -11 -7 -25 -4 -26 5 -30 18 -26 93 2 29
-3 40 -20 53 -13 9 -31 16 -41 16 -16 0 -18 -12 -18 -126 l0 -125 -27 3 -28 3
1 95 c2 173 2 170 24 170 11 0 20 5 20 10 0 6 -9 10 -20 10 -13 0 -20 7 -20
20 0 17 8 20 68 23 l67 3 -72 2 c-41 1 -73 6 -73 12 0 6 5 10 10 10 6 0 10 10
10 23 0 16 -3 18 -9 9 -5 -8 -17 -12 -27 -10 -15 3 -20 16 -26 66 -4 35 -8 73
-10 85 -2 16 3 23 18 25 20 3 23 -3 32 -70 l9 -73 2 81 1 82 -109 -6 -109 -5
-67 49 c-272 199 -608 493 -797 697 -246 265 -342 397 -310 429 16 16 31 2
144 -127 58 -66 183 -197 279 -292 157 -155 230 -221 510 -460 91 -78 192
-153 206 -153 5 0 20 -11 33 -25 26 -28 40 -32 40 -11 0 19 -11 28 -121 106
-113 79 -271 205 -387 307 -136 119 -424 406 -543 541 -107 122 -108 123 -88
143 31 31 23 39 -46 39 -45 0 -65 4 -65 13 0 6 -3 22 -6 35 -5 16 -2 22 10 22
22 0 49 45 41 70 -8 24 -35 41 -89 55 -40 10 -49 24 -69 106 -6 23 -3 27 21
32 66 14 107 98 81 170 -8 22 -26 49 -40 60 -35 25 -105 31 -146 13z m136 -45
c82 -77 -14 -218 -115 -169 -41 19 -68 70 -59 114 15 83 112 113 174 55z m-66
-345 c-33 -11 -36 -5 -22 45 l13 42 17 -39 c16 -39 16 -39 -8 -48z m-34 -80
c63 -4 117 -8 119 -11 3 -3 -45 -4 -106 -4 -81 1 -116 5 -129 16 -10 8 -13 12
-8 10 6 -3 62 -8 124 -11z m271 -126 c0 -24 -48 -30 -240 -30 -192 0 -240 6
-240 30 0 6 93 10 240 10 147 0 240 -4 240 -10z m-383 -117 c-3 -10 -5 -4 -5
12 0 17 2 24 5 18 2 -7 2 -21 0 -30z m280 5 c-3 -8 -6 -5 -6 6 -1 11 2 17 5
13 3 -3 4 -12 1 -19z m-290 -85 c-3 -10 -5 -2 -5 17 0 19 2 27 5 18 2 -10 2
-26 0 -35z m300 15 c-3 -8 -6 -5 -6 6 -1 11 2 17 5 13 3 -3 4 -12 1 -19z m46
9 c2 -7 50 -67 105 -134 120 -145 349 -376 522 -527 69 -60 141 -125 160 -143
19 -19 67 -59 105 -89 39 -30 98 -77 133 -104 l63 -50 -71 0 c-39 0 -81 5 -93
12 -32 17 -253 206 -397 340 -146 136 -243 234 -366 374 -128 145 -161 196
-172 272 -8 55 -2 83 11 49z m-119 -109 c4 -51 11 -149 17 -218 5 -69 14 -206
19 -305 5 -99 12 -221 16 -272 l7 -91 -138 0 -137 -1 6 82 c3 45 11 163 16
262 6 99 18 273 26 386 8 113 14 216 14 227 0 21 5 22 74 22 l73 0 7 -92z
m-237 15 c-3 -10 -5 -2 -5 17 0 19 2 27 5 18 2 -10 2 -26 0 -35z m-10 -75 c-2
-13 -4 -5 -4 17 -1 22 1 32 4 23 2 -10 2 -28 0 -40z m520 -174 c129 -151 426
-442 647 -634 l109 -96 0 -69 -1 -70 11 78 c9 66 13 77 30 77 18 0 19 -5 13
-57 -15 -134 -16 -135 -43 -128 -22 5 -25 3 -21 -13 4 -15 -13 -9 -86 30 -106
57 -251 118 -280 118 -20 0 -21 -5 -18 -75 2 -49 0 -75 -7 -75 -7 0 -11 27
-11 73 0 43 -5 80 -12 90 -18 23 -278 85 -364 87 -12 0 -16 28 -59 385 -14
116 -28 224 -31 240 l-5 30 28 -35 c161 -200 616 -648 761 -749 43 -30 66 -22
28 10 -15 13 -69 60 -120 104 -50 44 -108 93 -129 109 -64 47 -378 364 -464
469 -93 113 -108 141 -116 217 l-6 55 22 -26 c12 -14 68 -80 124 -145z m-530
99 c-3 -10 -5 -2 -5 17 0 19 2 27 5 18 2 -10 2 -26 0 -35z m-10 -80 c-3 -10
-5 -2 -5 17 0 19 2 27 5 18 2 -10 2 -26 0 -35z m-10 -60 c-3 -10 -5 -4 -5 12
0 17 2 24 5 18 2 -7 2 -21 0 -30z m222 -627 c13 -16 -1 -66 -19 -66 -18 0 -32
50 -19 66 6 8 15 14 19 14 4 0 13 -6 19 -14z m-59 -14 c0 -17 -12 -20 -122
-25 -68 -4 -158 -12 -200 -19 -71 -10 -78 -14 -78 -34 0 -12 -3 -30 -6 -39 -5
-13 -2 -16 11 -13 11 2 22 16 27 36 5 17 12 32 16 32 9 0 55 -71 49 -76 -5 -5
-113 -24 -135 -24 -7 0 -10 5 -7 10 4 6 11 7 17 4 8 -5 9 6 5 34 -5 28 -3 42
6 45 27 12 -20 6 -73 -8 -68 -18 -80 -19 -80 -1 0 39 269 89 513 95 49 1 57
-1 57 -17z m290 8 c120 -9 203 -22 320 -48 26 -6 36 -14 38 -30 3 -20 0 -22
-25 -17 l-28 5 28 -11 c24 -9 27 -16 27 -55 0 -24 -4 -44 -9 -44 -5 0 -47 9
-93 19 -46 11 -104 22 -130 26 l-48 6 0 46 0 45 58 -6 c31 -4 79 -12 105 -17
26 -6 50 -9 53 -7 16 17 -299 58 -443 58 -56 0 -63 2 -63 20 0 24 13 25 210
10z m-290 -85 l0 -45 -50 0 -50 0 0 45 0 45 50 0 50 0 0 -45z m170 0 l0 -45
-45 0 -45 0 0 45 0 45 45 0 45 0 0 -45z m-430 -31 c0 -42 -4 -64 -11 -62 -6 2
-10 7 -10 11 1 4 1 32 1 62 0 30 5 55 10 55 6 0 10 -29 10 -66z m314 52 c4 9
9 14 12 11 8 -8 -16 -77 -26 -77 -13 0 -30 35 -30 61 0 21 1 21 19 5 17 -16
19 -16 25 0z m300 -3 c3 -10 6 -40 8 -68 2 -38 -1 -50 -12 -50 -11 0 -16 16
-18 68 -2 39 1 67 7 67 5 0 12 -8 15 -17z m1166 2 c0 -13 -24 -15 -155 -15
-131 0 -155 2 -155 15 0 13 24 15 155 15 131 0 155 -2 155 -15z m-2836 -10
c-4 -8 -8 -15 -10 -15 -2 0 -4 7 -4 15 0 8 4 15 10 15 5 0 7 -7 4 -15z m1021
5 c3 -5 1 -10 -4 -10 -6 0 -11 5 -11 10 0 6 2 10 4 10 3 0 8 -4 11 -10z m-285
-34 c0 -39 -14 -53 -35 -36 -18 15 -20 56 -2 63 29 12 37 6 37 -27z m1274 28
c31 -12 13 -74 -21 -74 -8 0 -13 14 -13 40 0 40 5 45 34 34z m-2059 -14 c-3
-5 -12 -10 -18 -10 -7 0 -6 4 3 10 19 12 23 12 15 0z m715 -79 c0 -39 -4 -73
-10 -76 -6 -4 -10 22 -10 69 0 44 4 76 10 76 6 0 10 -30 10 -69z m175 33 c8
-20 15 -38 15 -40 0 -2 -18 -8 -41 -14 -22 -6 -47 -14 -55 -17 -12 -5 -15 3
-12 43 3 42 6 49 28 55 44 12 49 10 65 -27z m1365 -13 c81 -34 252 -123 337
-174 43 -26 52 -37 53 -60 l0 -28 -53 39 c-29 22 -71 49 -95 61 l-42 21 0 -47
c0 -34 -3 -44 -11 -36 -6 6 -10 29 -7 52 l3 40 -115 55 c-63 30 -134 62 -157
71 -29 12 -43 23 -43 35 0 22 18 18 130 -29z m-2257 19 c-3 -12 -8 -19 -11
-16 -5 6 5 36 12 36 2 0 2 -9 -1 -20z m687 2 c0 -14 -19 -27 -67 -47 -98 -41
-357 -170 -400 -200 -32 -21 -39 -23 -46 -10 -12 23 -2 32 76 73 132 68 412
201 425 201 6 1 12 -7 12 -17z m-349 -9 c13 -16 12 -17 -3 -4 -10 7 -18 15
-18 17 0 8 8 3 21 -13z m432 -26 c4 3 7 -5 7 -18 0 -27 -17 -49 -37 -49 -9 0
-13 15 -13 47 0 44 1 45 18 30 10 -10 22 -14 25 -10z m-83 -41 l0 -44 -85 -36
c-46 -20 -91 -39 -100 -42 -12 -5 -15 2 -15 33 l0 38 98 48 c53 26 98 47 100
47 1 0 2 -20 2 -44z m1390 14 c0 -36 -26 -41 -39 -7 -11 27 -6 37 20 37 14 0
19 -7 19 -30z m116 6 c126 -50 134 -56 134 -97 l0 -38 -87 35 c-49 19 -94 34
-100 34 -9 0 -13 16 -13 45 0 25 1 45 3 45 2 0 30 -11 63 -24z m-2174 -81 c4
-34 3 -35 -32 -34 l-35 1 30 8 c17 4 22 8 12 9 -23 1 -34 30 -16 42 26 16 37
9 41 -26z m156 -3 c3 -27 0 -32 -17 -32 -16 0 -21 6 -21 28 0 53 33 56 38 4z
m1200 11 c-18 -42 -27 -50 -38 -33 -7 10 -10 11 -10 3 0 -7 -9 -13 -19 -13
-11 0 -23 6 -27 13 -4 6 -4 9 1 5 4 -4 16 3 27 17 10 13 28 26 41 28 12 2 25
5 29 6 4 0 2 -11 -4 -26z m134 -10 c38 -36 28 -44 -44 -34 -8 1 -38 55 -38 67
0 14 56 -9 82 -33z m-1390 2 c-3 -16 -11 -25 -23 -25 -14 0 -19 7 -19 25 0 20
5 25 24 25 19 0 22 -4 18 -25z m1309 -20 l21 -44 44 6 c54 7 59 -9 15 -52
l-30 -28 22 -38 c25 -44 19 -55 -21 -41 -28 10 -30 8 -52 -37 l-22 -46 -22 45
c-11 25 -21 46 -22 48 0 1 -15 -3 -33 -9 -18 -6 -34 -9 -36 -7 -3 2 5 21 16
42 l20 37 -31 39 c-16 21 -30 41 -30 45 0 4 21 5 48 3 47 -3 47 -3 66 40 11
23 21 42 23 42 1 0 12 -20 24 -45z m-173 13 c-7 -13 -17 -26 -22 -29 -17 -13
-91 14 -100 36 -3 9 16 13 65 14 l70 2 -13 -23z m415 12 c33 0 1 -28 -46 -41
-38 -10 -43 -9 -59 11 -26 32 -13 43 40 36 25 -3 54 -6 65 -6z m-570 -24 c14
-13 23 -27 19 -32 -4 -4 -2 -4 4 -1 13 8 79 -17 89 -33 3 -5 3 -10 0 -10 -33
0 -172 -37 -220 -59 l-60 -27 -2 84 c-2 79 -1 84 17 79 11 -3 20 -1 20 3 0 8
29 14 86 18 12 1 33 -9 47 -22z m1290 13 c29 -16 37 -28 37 -61 0 -33 -5 -34
-47 -8 -26 15 -33 27 -33 50 0 32 9 36 43 19z m-1923 -34 c0 -30 -5 -37 -40
-55 l-40 -20 0 39 c0 34 5 43 28 55 42 23 52 20 52 -19z m1362 24 l55 -11 2
-71 c1 -39 4 -74 7 -79 7 -11 -10 -10 -21 1 -20 18 -142 60 -207 71 -38 7 -68
16 -68 21 0 12 48 32 73 31 9 0 17 4 17 9 0 6 6 7 13 3 6 -4 9 -4 5 1 -13 14
13 35 42 35 14 0 51 -5 82 -11z m-1452 -64 c0 -25 -4 -45 -10 -45 -11 0 -14
73 -3 83 11 12 13 8 13 -38z m498 -66 c-3 -51 -1 -56 14 -48 38 20 30 7 -12
-21 -25 -16 -49 -30 -54 -30 -6 0 -20 -10 -33 -22 l-24 -22 3 109 3 110 50 17
50 16 3 -25 c2 -14 2 -52 0 -84z m1130 91 l43 -11 -2 -99 c-1 -54 2 -103 5
-109 12 -18 -2 -12 -23 10 -10 11 -25 21 -32 22 -8 2 -24 9 -35 17 -19 13 -22
26 -23 102 -1 67 1 87 11 83 7 -2 32 -9 56 -15z m-1988 1 c0 -12 -29 -23 -41
-15 -18 10 -9 24 16 24 14 0 25 -4 25 -9z m100 -1 c0 -5 -9 -10 -20 -10 -11 0
-20 5 -20 10 0 6 9 10 20 10 11 0 20 -4 20 -10z m60 2 c0 -10 -22 -32 -32 -32
-4 0 -8 9 -8 20 0 13 7 20 20 20 11 0 20 -4 20 -8z m2368 -76 c2 -21 -1 -36
-7 -36 -6 0 -11 11 -11 25 0 14 -4 25 -10 25 -5 0 -10 -4 -10 -10 0 -5 -7 -7
-15 -4 -10 4 -15 20 -15 46 l0 41 33 -25 c24 -19 33 -35 35 -62z m262 39 c0
-38 -3 -45 -20 -45 -17 0 -20 7 -20 45 0 38 3 45 20 45 17 0 20 -7 20 -45z
m60 0 c0 -41 -2 -45 -25 -45 -23 0 -25 4 -25 45 0 41 2 45 25 45 23 0 25 -4
25 -45z m-190 -16 l0 -39 135 0 c83 0 135 -4 135 -10 0 -6 -52 -10 -132 -11
-73 -1 -125 -3 -115 -6 12 -3 17 -15 17 -44 0 -38 -1 -39 -27 -33 -16 4 -31 9
-35 11 -12 6 -9 51 3 59 7 4 10 28 7 65 -2 32 -1 56 4 53 4 -3 8 -23 8 -45z
m-556 1 c3 1 22 -5 42 -12 l35 -12 -2 -148 c0 -81 -2 -148 -3 -148 -2 0 -11
10 -22 22 -19 22 -19 23 1 8 19 -14 19 -14 6 3 -7 9 -19 17 -26 17 -14 0 -28
27 -20 40 3 4 -3 7 -11 6 -14 -1 -16 11 -14 84 4 119 4 123 -5 145 -5 14 -4
16 3 7 5 -8 12 -13 16 -12z m-1964 -27 c0 -20 -3 -33 -7 -29 -8 8 -12 48 -6
59 9 15 13 6 13 -30z m544 6 c-8 -17 -11 -28 -5 -25 7 5 11 -10 11 -46 0 -29
3 -71 6 -93 4 -31 3 -37 -6 -25 -9 12 -10 11 -5 -6 4 -16 -1 -27 -17 -40 -13
-11 -36 -36 -52 -56 -16 -21 -32 -38 -37 -38 -5 0 0 9 11 20 14 14 18 27 14
50 -4 19 -1 36 7 47 12 14 12 16 0 8 -12 -7 -13 6 -8 84 6 98 19 130 44 110
10 -9 12 -9 8 3 -5 12 18 31 43 37 1 1 -5 -13 -14 -30z m-927 -51 c-1 -40 -6
-79 -10 -85 -5 -7 -5 -13 0 -13 4 0 9 -14 10 -30 2 -23 -2 -30 -17 -30 -15 0
-17 5 -11 28 4 15 4 38 0 52 -4 14 -7 48 -8 77 -1 40 3 54 17 62 9 6 18 11 19
11 1 0 1 -33 0 -72z m445 0 c-14 -16 -13 -18 4 -19 17 0 16 -2 -3 -11 -13 -6
-23 -15 -23 -20 0 -4 -5 -8 -10 -8 -15 0 0 82 19 103 15 18 16 18 22 -5 4 -14
0 -30 -9 -40z m2396 40 c8 -8 8 -17 1 -30 -13 -24 -29 -14 -29 18 0 26 9 31
28 12z m-2530 -15 c-27 -2 -69 -2 -95 0 -27 2 -5 3 47 3 52 0 74 -1 48 -3z
m488 -22 c-16 -17 -18 -39 -15 -178 l3 -158 -36 -75 c-20 -42 -39 -93 -43
-113 -9 -49 -17 -52 -46 -19 -13 15 -17 21 -9 15 8 -7 18 -13 22 -13 4 0 8 61
8 135 0 115 2 135 17 143 14 8 16 26 15 121 -2 90 1 111 12 111 8 0 16 -3 19
-7 2 -5 2 -3 1 4 -2 6 11 21 29 32 40 26 45 26 23 2z m-452 1 c5 -8 -183 -6
-192 3 -3 3 38 5 91 5 53 0 98 -3 101 -8z m2203 -138 c1 -92 5 -120 16 -129
12 -9 16 -41 18 -158 3 -142 -3 -190 -16 -131 -3 16 -17 58 -31 94 -13 36 -23
67 -21 70 1 3 -8 19 -20 36 -12 17 -20 34 -17 37 3 3 5 74 5 157 -1 102 2 150
9 145 5 -3 10 1 10 11 0 15 2 15 23 1 21 -14 22 -22 24 -133z m-2157 115 c0
-18 -2 -19 -15 -9 -8 7 -15 16 -15 21 0 5 7 9 15 9 9 0 15 -9 15 -21z m850 17
c0 -2 -7 -7 -16 -10 -8 -3 -12 -2 -9 4 6 10 25 14 25 6z m1620 -27 c0 -20 -15
-26 -25 -9 -9 15 3 43 15 35 5 -3 10 -15 10 -26z m170 -9 c0 -33 -3 -40 -20
-40 -17 0 -20 7 -20 40 0 33 3 40 20 40 17 0 20 -7 20 -40z m60 0 c0 -36 -2
-40 -25 -40 -22 0 -25 4 -25 40 0 36 3 40 25 40 23 0 25 -4 25 -40z m196 11
c-1 -16 -5 -27 -11 -24 -5 3 -4 0 3 -8 18 -19 16 -99 -3 -99 -28 0 -18 149 11
160 1 0 1 -13 0 -29z m-3038 -18 c3 -19 -1 -23 -22 -23 -28 0 -41 14 -32 36 9
24 50 13 54 -13z m102 3 c0 -13 -7 -27 -16 -30 -20 -8 -21 -8 -29 27 -6 24 -5
27 19 27 21 0 26 -5 26 -24z m-286 -23 c12 -76 8 -93 -20 -93 -25 0 -25 1 -22
65 2 52 6 65 19 65 11 0 18 -12 23 -37z m1101 27 c-3 -5 -12 -10 -18 -10 -7 0
-6 4 3 10 19 12 23 12 15 0z m437 -58 c24 -47 25 -47 59 15 l16 29 94 -2 c173
-5 339 -80 457 -210 62 -67 127 -177 137 -232 3 -17 9 -42 14 -55 9 -22 5 -26
-50 -52 -32 -16 -71 -41 -86 -57 -42 -44 -58 -37 -78 33 -12 44 -14 64 -6 72
17 17 13 69 -6 97 -10 14 -16 37 -14 52 3 35 -23 48 -47 24 -14 -14 -15 -19
-3 -37 11 -19 9 -25 -20 -55 -28 -29 -39 -34 -81 -34 -48 0 -49 -1 -68 -44
-18 -42 -84 -126 -100 -126 -25 0 -90 112 -90 156 0 7 -10 20 -22 28 -17 12
-19 18 -9 29 15 19 4 47 -20 47 -25 0 -36 -27 -21 -50 13 -21 6 -30 -20 -30
-10 0 -18 -7 -18 -17 0 -24 -15 -6 -44 52 -33 66 -33 43 0 -29 19 -41 31 -56
46 -56 17 0 19 -4 12 -27 -5 -16 -8 -47 -7 -71 l0 -42 -290 5 -290 6 -31 26
c-17 14 -56 38 -87 53 l-56 26 17 60 c72 261 347 464 622 460 l67 -1 23 -43z
m1567 -30 c0 -13 -3 -20 -9 -17 -5 3 -9 27 -9 53 1 42 2 44 9 17 4 -16 8 -40
9 -53z m-3289 32 c0 -8 -2 -14 -4 -14 -3 0 -58 -9 -123 -20 -155 -26 -203 -26
-203 -1 0 16 11 20 81 26 45 4 116 13 158 20 82 13 91 12 91 -11z m3680 -4
c36 -5 84 -10 108 -10 39 0 43 -2 40 -22 -3 -21 -8 -23 -53 -20 -63 3 -257 41
-269 52 -19 19 5 27 56 18 29 -4 82 -13 118 -18z m-3440 -32 c0 -10 -7 -18
-15 -18 -11 0 -15 11 -15 37 0 35 1 36 15 17 8 -10 15 -27 15 -36z m3245 42
c3 -5 -3 -10 -14 -10 -11 0 -23 5 -26 10 -3 6 3 10 14 10 11 0 23 -4 26 -10z
m-3838 -15 c5 -16 -22 -55 -39 -55 -4 0 -8 16 -8 35 0 29 4 35 20 35 11 0 23
-7 27 -15z m4253 -15 c0 -24 -4 -30 -22 -30 -18 0 -23 6 -25 30 -2 26 1 30 22
30 21 0 25 -5 25 -30z m-3840 -21 c0 -33 -22 -58 -52 -59 -19 0 -22 18 -12 57
5 19 14 24 57 32 4 0 7 -13 7 -30z m1040 27 c0 -3 -4 -8 -10 -11 -5 -3 -10 -1
-10 4 0 6 5 11 10 11 6 0 10 -2 10 -4z m2388 -6 c7 0 12 -14 12 -35 0 -38 -5
-40 -44 -25 -20 7 -26 16 -26 41 0 28 3 31 23 25 12 -3 28 -6 35 -6z m-627
-176 c1 -68 2 -130 2 -136 1 -24 -15 -48 -32 -48 -9 0 -29 -7 -45 -15 -25 -13
-27 -13 -22 1 3 8 6 95 6 193 l1 179 45 -25 44 -25 1 -124z m-2881 131 c0 -29
-5 -37 -27 -46 -16 -6 -43 -11 -61 -11 -17 0 -35 -4 -38 -9 -3 -5 -18 -9 -34
-9 -16 0 -39 -4 -52 -9 -13 -4 -35 -11 -50 -15 -27 -6 -28 -5 -28 38 l0 45 48
6 c26 3 58 8 72 12 14 3 41 6 60 8 19 2 42 5 50 8 61 22 60 22 60 -18z m750
-27 c0 -35 3 -121 7 -192 l6 -128 -34 18 c-19 10 -38 18 -42 19 -19 1 -23 34
-20 167 l3 142 33 18 c17 9 35 17 40 18 4 0 7 -28 7 -62z m2857 45 c18 -3 30
-9 27 -14 -3 -5 -1 -9 5 -9 5 0 12 4 16 9 3 6 16 6 33 1 15 -5 53 -11 85 -15
l57 -6 0 -45 c0 -29 -4 -44 -12 -44 -28 1 -149 37 -160 48 -15 15 -31 16 -22
1 5 -9 -1 -10 -19 -5 -68 17 -77 24 -77 62 0 30 3 35 18 29 9 -4 32 -9 49 -12z
m-2985 -5 c-5 -7 -9 -55 -9 -106 0 -51 -3 -95 -6 -99 -4 -3 -25 6 -47 21 -40
26 -40 26 -40 91 0 36 4 66 10 66 16 2 23 5 60 22 43 20 45 20 32 5z m2321
-50 c-2 -4 3 -5 11 -2 9 3 13 10 10 15 -7 12 13 11 37 -1 16 -9 19 -22 19 -72
0 -34 -3 -59 -6 -56 -3 3 -19 -7 -37 -23 -17 -16 -35 -29 -39 -29 -5 0 -8 48
-7 108 0 64 4 99 8 87 5 -11 7 -23 4 -27z m-3243 -22 c0 -25 -4 -48 -10 -51
-6 -4 -10 13 -10 44 0 28 5 51 10 51 6 0 10 -20 10 -44z m4160 -7 c0 -31 -4
-48 -10 -44 -5 3 -10 26 -10 51 0 24 5 44 10 44 6 0 10 -23 10 -51z m-3390 12
c-4 -16 -6 -32 -3 -34 9 -10 -38 -28 -55 -23 -10 3 -18 15 -19 27 -1 15 9 25
40 40 23 10 43 19 44 19 1 0 -2 -13 -7 -29z m2655 -7 c51 -24 50 -39 -1 -51
-32 -7 -44 -7 -45 1 0 6 -2 23 -4 39 -4 31 4 33 50 11z m-2690 -74 c106 -36
206 -116 221 -175 3 -13 19 -27 40 -34 81 -29 143 -116 144 -197 0 -34 -7 -49
-36 -80 -20 -22 -33 -33 -29 -26 3 6 2 12 -2 12 -22 0 -11 49 17 74 34 30 35
35 16 79 -32 77 -114 121 -216 116 -93 -5 -112 -1 -108 24 3 19 9 22 46 22 23
1 42 -4 42 -10 0 -5 5 -3 10 5 6 10 10 11 10 3 0 -7 5 -13 11 -13 5 0 7 5 3
12 -5 8 -2 9 9 5 49 -19 -29 71 -97 112 -113 68 -228 84 -401 56 -116 -18
-146 -26 -226 -59 -74 -29 -79 -30 -79 -15 0 5 24 21 54 34 177 78 432 103
571 55z m3076 -4 c77 -17 167 -50 195 -70 34 -25 6 -30 -44 -8 -67 31 -181 58
-295 72 -171 20 -303 -17 -398 -111 -45 -44 -47 -49 -64 -142 -20 -110 -35
-134 -35 -55 0 65 21 146 49 192 28 44 113 102 187 127 51 17 79 19 199 15 77
-3 170 -12 206 -20z m-181 -126 c41 0 90 -21 90 -38 0 -4 -96 -6 -214 -4
l-213 3 9 -58 c5 -32 6 -68 3 -80 l-5 -23 195 0 195 0 0 70 c0 44 4 70 11 70
7 0 9 -24 7 -70 -2 -48 1 -70 8 -70 17 0 24 -25 24 -86 l0 -54 -250 0 -250 0
0 51 c0 54 13 89 33 89 9 0 11 25 10 90 l-3 89 38 11 c20 5 48 10 62 10 14 0
45 6 70 14 38 11 52 11 90 0 25 -8 65 -14 90 -14z m-2792 -12 c-4 -10 -58 -13
-228 -13 -170 0 -224 3 -227 13 -4 9 46 12 227 12 181 0 231 -3 228 -12z
m-410 -68 c-3 -33 0 -40 14 -40 14 0 18 8 18 41 0 26 4 38 11 33 6 -3 9 -22 7
-40 -4 -33 -3 -34 34 -34 38 0 38 0 38 40 0 22 5 40 10 40 6 0 10 -18 10 -39
0 -22 5 -43 10 -46 6 -3 10 -33 10 -66 l0 -59 -92 -2 -93 -2 90 -5 c81 -5 90
-8 91 -26 4 -71 9 -54 13 45 6 110 7 115 29 118 18 3 22 10 24 45 l1 42 4 -42
c4 -43 4 -43 44 -43 39 0 39 0 39 40 0 23 5 40 11 40 7 0 10 -15 7 -40 l-4
-40 106 0 c58 0 110 -4 117 -8 14 -9 60 -106 65 -137 3 -19 -4 -20 -197 -25
l-200 -6 198 -2 197 -2 0 -45 0 -45 -61 0 c-53 0 -64 3 -81 25 -11 15 -30 25
-44 25 -14 0 -35 -11 -48 -25 -22 -24 -29 -25 -134 -25 -108 0 -112 1 -128 25
-11 17 -25 25 -44 25 -19 0 -36 -9 -48 -25 -15 -18 -29 -25 -56 -25 -20 0 -37
5 -37 10 -5 29 -2 35 21 41 24 7 24 7 3 8 -13 1 -23 7 -23 16 0 12 20 15 108
17 l107 2 -107 3 -108 4 0 37 c1 56 17 114 34 124 10 6 16 23 16 48 0 23 5 40
11 40 7 0 10 -15 7 -40z m92 5 c0 -19 -4 -35 -10 -35 -5 0 -10 16 -10 35 0 19
5 35 10 35 6 0 10 -16 10 -35z m100 -5 c0 -16 -4 -32 -10 -35 -6 -4 -10 10
-10 35 0 25 4 39 10 35 6 -3 10 -19 10 -35z m90 5 c0 -19 -4 -35 -10 -35 -11
0 -14 53 -3 63 11 12 13 8 13 -28z m377 3 c-3 -7 -5 -2 -5 12 0 14 2 19 5 13
2 -7 2 -19 0 -25z m1450 6 c-3 -3 -12 -4 -19 -1 -8 3 -5 6 6 6 11 1 17 -2 13
-5z m733 -49 c0 -42 -3 -55 -15 -55 -12 0 -15 13 -15 55 0 42 3 55 15 55 12 0
15 -13 15 -55z m-100 30 c0 -8 -21 -25 -47 -37 -57 -29 -83 -62 -90 -116 -5
-40 -4 -41 33 -57 21 -9 46 -23 56 -32 22 -20 33 -76 19 -100 -6 -10 -11 -13
-11 -6 0 6 -24 25 -54 42 -30 17 -57 38 -60 47 -10 26 -7 154 4 154 6 0 9 4 8
9 -4 15 57 76 94 94 41 20 48 21 48 2z m-985 -89 c14 -30 30 -58 35 -61 19
-12 10 -25 -18 -25 -26 0 -29 4 -40 58 -21 101 -14 109 23 28z m197 -33 c19
-38 4 -53 -52 -53 -27 0 -50 3 -50 6 0 3 19 27 43 54 30 34 43 43 45 31 2 -9
8 -26 14 -38z m605 35 c-3 -8 -6 -5 -6 6 -1 11 2 17 5 13 3 -3 4 -12 1 -19z
m-1557 -65 c50 -43 72 -89 64 -132 -5 -25 -3 -31 10 -31 11 0 14 -5 10 -12 -5
-7 -3 -8 6 -3 7 4 16 2 21 -6 15 -25 10 -30 -27 -27 -32 3 -38 8 -51 43 -8 22
-17 56 -18 75 -6 63 -95 116 -133 78 -24 -24 -13 -36 27 -31 33 5 41 2 54 -18
9 -13 19 -45 22 -71 4 -26 11 -46 15 -43 4 3 10 -5 13 -17 4 -16 3 -18 -6 -9
-14 14 -30 15 -22 1 4 -6 -10 -10 -35 -10 -36 0 -41 3 -35 18 11 30 10 36 -8
40 -11 2 -23 -7 -35 -27 -16 -30 -20 -31 -84 -31 -60 0 -67 2 -61 18 13 34 35
62 46 55 6 -3 7 -1 3 5 -4 7 -2 12 3 12 21 0 11 38 -23 88 -19 27 -32 52 -29
55 11 12 55 -27 74 -65 11 -22 25 -38 32 -35 7 2 16 27 21 55 5 29 12 52 16
52 5 0 6 9 3 20 -5 19 -4 19 40 4 24 -8 64 -31 87 -51z m1414 35 c3 -13 6 -42
6 -65 0 -24 5 -43 11 -43 5 0 8 -4 5 -9 -4 -5 3 -7 14 -4 11 3 20 11 20 17 0
15 46 78 65 88 26 15 24 -9 -4 -48 -43 -59 -45 -80 -10 -117 16 -17 27 -37 24
-44 -2 -8 0 -11 5 -8 6 3 10 1 10 -4 0 -7 -50 -10 -145 -9 -99 0 -145 4 -145
12 0 30 51 117 74 126 40 15 59 63 30 74 -42 16 -130 -57 -105 -88 8 -10 5
-27 -14 -70 -22 -50 -28 -56 -54 -56 -17 0 -33 5 -36 10 -9 15 14 41 34 38 12
-2 16 5 17 27 2 64 15 94 57 128 83 67 131 82 141 45z m-265 -19 c14 -41 14
-39 -9 -39 -16 0 -20 7 -20 35 0 44 14 45 29 4z m-69 1 c0 -11 0 -23 1 -27 0
-4 -4 -9 -10 -11 -14 -5 -25 23 -17 43 8 22 26 18 26 -5z m-401 -32 c1 -5 -3
-8 -9 -8 -5 0 -10 12 -9 28 0 24 1 25 9 7 5 -11 9 -23 9 -27z m41 5 c0 -7 -4
-13 -10 -13 -5 0 -10 12 -10 28 0 21 2 24 10 12 5 -8 10 -21 10 -27z m318 15
c-2 -18 -11 -24 -35 -26 -30 -3 -33 -1 -33 22 0 23 4 26 36 26 31 0 35 -3 32
-22z m-234 -45 c281 -4 404 -9 396 -17 -5 -5 -10 -23 -10 -38 0 -16 -9 -39
-21 -51 -12 -12 -26 -34 -31 -49 l-10 -28 -494 0 c-439 0 -494 2 -494 15 0 9
-11 27 -24 40 -13 13 -26 41 -29 62 -3 21 -9 46 -12 56 -7 16 5 17 157 17 91
0 348 -3 572 -7z m1506 -93 c0 -19 -7 -20 -250 -20 -202 0 -250 3 -250 13 0 8
3 17 7 20 3 4 116 7 250 7 236 0 243 -1 243 -20z m-422 -62 c-5 -34 -38 -37
-38 -4 0 20 5 26 21 26 15 0 20 -5 17 -22z m346 14 c7 -11 -6 -27 -26 -35 -14
-5 -18 -1 -18 18 0 18 5 25 19 25 11 0 22 -4 25 -8z"/>
<path d="M3239 2093 c-13 -16 -12 -17 4 -4 16 13 21 21 13 21 -2 0 -10 -8 -17
-17z"/>
<path d="M2180 1788 c0 -11 152 -10 168 0 6 5 -28 8 -78 8 -49 -1 -90 -4 -90
-8z"/>
<path d="M2320 1754 c-30 -17 -57 -18 -98 -3 -25 8 -42 8 -76 -4 -24 -8 -46
-13 -49 -11 -2 3 -13 7 -23 9 -11 2 -30 7 -43 11 -21 6 -22 5 -12 -15 7 -12
16 -19 22 -16 13 9 11 -9 -2 -22 -9 -9 -4 -20 20 -43 31 -32 32 -32 117 -29
61 3 87 8 94 19 12 20 6 24 -18 11 -12 -6 -56 -10 -99 -9 l-78 1 86 6 c80 6
109 16 131 46 4 5 4 13 1 18 -3 4 3 7 12 5 9 -2 24 7 32 20 17 25 17 25 -17 6z
m-130 -35 c-25 -4 -63 -7 -85 -7 l-40 1 40 7 c22 4 60 7 85 7 l45 0 -45 -8z
m-32 -36 c-16 -2 -40 -2 -55 0 -16 2 -3 4 27 4 30 0 43 -2 28 -4z"/>
<path d="M2070 1600 c0 -7 35 -10 95 -9 52 2 95 6 95 11 0 4 -43 8 -95 8 -58
0 -95 -4 -95 -10z"/>
<path d="M3721 1576 c-14 -17 -6 -56 11 -56 7 0 7 5 -1 14 -6 7 -9 21 -5 30 5
14 30 16 200 16 107 0 194 -4 194 -9 0 -5 -78 -8 -174 -7 -96 0 -172 -2 -170
-6 2 -3 -3 -14 -12 -22 -15 -15 0 -16 173 -14 l188 3 0 30 0 30 -196 3 c-163
2 -198 0 -208 -12z m383 -22 c42 -16 -10 -24 -160 -24 -209 0 -223 18 -16 23
81 1 150 4 154 5 3 1 13 -1 22 -4z"/>
<path d="M1242 1672 c-9 -6 -12 -25 -10 -53 l3 -44 93 -3 c93 -3 94 -3 87 20
-4 13 -15 37 -24 53 -16 27 -22 30 -77 33 -32 1 -65 -2 -72 -6z m126 -23 c-2
-7 -28 -11 -63 -11 -35 0 -61 4 -63 11 -2 7 18 11 63 11 45 0 65 -4 63 -11z"/>
<path d="M1058 1653 c-2 -10 -2 -33 0 -50 l4 -33 59 0 59 0 0 50 0 50 -59 0
c-49 0 -60 -3 -63 -17z m102 -8 c0 -11 -12 -15 -45 -15 -33 0 -45 4 -45 15 0
11 12 15 45 15 33 0 45 -4 45 -15z"/>
<path d="M1087 1493 c18 -2 50 -2 70 0 21 2 7 4 -32 4 -38 0 -55 -2 -38 -4z"/>
<path d="M1388 1493 c12 -2 32 -2 45 0 12 2 2 4 -23 4 -25 0 -35 -2 -22 -4z"/>
<path d="M1659 1413 c-13 -16 -12 -17 4 -4 9 7 17 15 17 17 0 8 -8 3 -21 -13z"/>
<path d="M3217 1424 c-10 -11 3 -24 24 -24 10 0 19 7 19 15 0 15 -31 21 -43 9z"/>
<path d="M2968 1523 c6 -2 18 -2 25 0 6 3 1 5 -13 5 -14 0 -19 -2 -12 -5z"/>
<path d="M635 2425 c5 -11 9 -38 8 -60 -1 -39 -1 -39 12 -15 20 35 18 54 -7
76 -21 19 -21 19 -13 -1z"/>
<path d="M4340 2421 c-14 -28 -12 -57 5 -71 13 -11 14 -8 9 18 -4 17 -1 32 5
36 14 9 15 36 1 36 -5 0 -14 -9 -20 -19z"/>
<path d="M4070 2410 c0 -5 16 -10 36 -10 21 0 33 4 29 10 -3 6 -19 10 -36 10
-16 0 -29 -4 -29 -10z"/>
<path d="M4350 2244 c0 -6 7 -19 16 -30 14 -18 14 -18 3 6 -14 31 -19 36 -19
24z"/>
<path d="M631 2224 c0 -11 3 -14 6 -6 3 7 2 16 -1 19 -3 4 -6 -2 -5 -13z"/>
<path d="M4533 1415 c0 -8 4 -12 9 -9 5 3 6 10 3 15 -9 13 -12 11 -12 -6z"/>
<path d="M295 1260 c-4 -6 23 -10 74 -10 47 0 81 4 81 10 0 6 -31 10 -74 10
-41 0 -78 -4 -81 -10z"/>
<path d="M535 1260 c-4 -7 258 -10 780 -10 522 0 784 3 780 10 -4 7 -275 10
-780 10 -505 0 -776 -3 -780 -10z"/>
<path d="M2635 1260 c-4 -7 62 -10 190 -10 128 0 194 3 190 10 -4 6 -78 10
-190 10 -112 0 -186 -4 -190 -10z"/>
<path d="M3095 1260 c-4 -7 233 -10 705 -10 472 0 709 3 705 10 -4 7 -250 10
-705 10 -455 0 -701 -3 -705 -10z"/>
<path d="M4595 1260 c-4 -6 17 -10 55 -10 38 0 59 4 55 10 -3 6 -28 10 -55 10
-27 0 -52 -4 -55 -10z"/>
<path d="M985 1046 c-45 -20 -73 -56 -80 -101 -9 -61 18 -102 101 -151 78 -45
93 -76 50 -95 -20 -10 -33 -8 -72 11 l-47 23 -23 -28 c-18 -23 -20 -32 -12
-43 22 -26 88 -52 133 -52 64 0 103 23 126 74 33 76 -2 138 -109 189 -46 23
-63 56 -42 82 16 19 43 19 82 -1 30 -16 31 -15 54 13 13 15 22 32 20 37 -11
41 -127 68 -181 42z"/>
<path d="M3084 1040 c-49 -25 -69 -58 -69 -114 0 -56 28 -92 106 -136 73 -41
88 -72 45 -91 -20 -10 -32 -8 -70 11 l-46 22 -20 -24 c-27 -32 -21 -49 25 -75
116 -66 260 15 226 127 -12 42 -37 67 -105 107 -59 34 -75 56 -60 81 15 24 47
26 85 7 31 -17 32 -17 55 12 32 38 30 48 -13 68 -58 28 -112 29 -159 5z"/>
<path d="M1510 836 l0 -214 25 -4 c14 -3 36 -3 50 -1 24 5 24 8 27 101 3 96 3
97 32 111 26 12 33 12 61 -3 31 -17 34 -17 71 3 46 25 87 27 108 5 27 -27 19
-36 -24 -29 -70 12 -150 -42 -150 -100 0 -73 89 -117 160 -80 17 9 30 11 30 6
0 -12 35 -20 60 -14 18 5 20 14 20 104 0 117 -14 159 -62 189 -27 17 -42 20
-83 15 -27 -4 -63 -6 -80 -5 -79 5 -102 4 -122 -3 -22 -8 -23 -7 -23 62 l0 71
-50 0 -50 0 0 -214z m378 -124 c4 -24 -26 -37 -64 -28 -31 8 -32 44 -1 55 30
11 61 -2 65 -27z"/>
<path d="M2598 988 c0 -7 -2 -17 -3 -23 -2 -5 -3 -15 -4 -22 0 -6 -10 -15 -21
-18 -14 -5 -20 -15 -20 -37 0 -21 6 -31 20 -35 18 -5 20 -14 20 -74 0 -109 26
-155 94 -166 36 -6 36 -5 36 30 0 20 5 39 10 42 6 3 10 0 10 -9 0 -22 58 -66
88 -66 15 0 40 7 56 15 27 14 31 14 38 0 11 -18 52 -20 66 -2 14 18 9 217 -6
245 -31 55 -109 76 -176 48 -46 -19 -54 -35 -27 -57 17 -14 33 -17 65 -13 32
5 46 2 59 -11 27 -27 20 -33 -37 -31 -63 1 -102 -21 -125 -73 -11 -23 -21 -31
-35 -29 -19 3 -21 10 -21 73 0 69 0 70 28 73 26 3 28 6 25 40 -3 32 -7 37 -30
40 -25 3 -28 8 -28 38 0 33 -1 34 -40 34 -25 0 -41 -5 -42 -12z m307 -273 c0
-25 -27 -39 -58 -31 -34 8 -37 43 -4 55 29 11 62 -2 62 -24z"/>
<path d="M3659 993 c-1 -5 -2 -19 -2 -33 -2 -18 -9 -26 -24 -28 -19 -3 -23
-10 -23 -42 0 -32 4 -39 23 -42 21 -3 22 -8 25 -89 2 -75 6 -90 26 -112 21
-22 90 -47 101 -36 2 2 6 20 10 41 6 33 4 37 -22 50 -26 13 -28 17 -28 78 0
63 1 65 28 68 24 3 27 7 27 43 0 37 -2 39 -30 39 -28 0 -30 3 -30 35 0 34 -1
35 -40 35 -22 0 -40 -3 -41 -7z"/>
<path d="M1274 916 c-42 -19 -49 -33 -28 -57 14 -16 26 -19 56 -14 48 8 74 0
81 -26 5 -19 2 -20 -33 -14 -54 9 -122 -22 -139 -63 -36 -86 54 -161 140 -118
21 11 35 13 37 6 2 -5 19 -10 38 -10 l34 0 0 113 c0 128 -9 154 -60 179 -42
21 -83 22 -126 4z m92 -180 c28 -22 7 -51 -37 -51 -39 0 -53 30 -23 52 23 17
36 16 60 -1z"/>
<path d="M1957 923 c-3 -5 22 -64 54 -132 33 -67 59 -131 59 -140 0 -9 -16
-49 -35 -89 l-34 -72 49 0 c49 0 50 0 74 48 43 86 166 363 166 376 0 8 -15 12
-42 11 l-43 -1 -33 -80 c-18 -43 -37 -83 -41 -87 -5 -5 -26 32 -47 82 l-38 91
-43 0 c-23 0 -44 -3 -46 -7z"/>
<path d="M2365 923 c-10 -3 -30 -12 -42 -21 l-24 -15 22 -23 c19 -20 28 -22
65 -17 46 6 74 -7 74 -34 0 -10 -8 -12 -33 -8 -66 13 -147 -42 -147 -99 0 -29
24 -68 51 -82 36 -18 63 -18 102 2 21 12 32 13 35 5 2 -6 19 -11 38 -11 l34 0
0 110 c0 125 -11 160 -60 185 -28 15 -75 18 -115 8z m90 -194 c18 -17 -10 -44
-46 -44 -25 0 -35 5 -37 19 -8 38 50 55 83 25z"/>
<path d="M3394 916 c-97 -44 -119 -183 -40 -262 53 -53 147 -58 202 -11 l25
22 -25 24 c-23 21 -29 23 -49 12 -35 -18 -87 -10 -105 17 l-14 22 106 0 106 0
0 36 c0 42 -31 101 -67 128 -33 24 -100 30 -139 12z m97 -76 c10 -6 19 -17 19
-25 0 -12 -14 -15 -60 -15 -33 0 -60 3 -60 7 0 3 7 15 17 25 18 20 54 23 84 8z"/>
<path d="M3832 808 c4 -136 15 -166 69 -188 34 -15 85 -7 111 17 16 14 18 14
18 1 0 -15 55 -31 73 -21 4 2 7 74 7 159 l0 154 -40 0 -40 0 0 -99 c0 -77 -4
-103 -16 -115 -19 -19 -67 -21 -82 -3 -6 7 -13 58 -14 113 l-3 99 -44 3 -43 3
4 -123z"/>
<path d="M1240 395 c0 -8 5 -15 10 -15 6 0 10 7 10 15 0 8 -4 15 -10 15 -5 0
-10 -7 -10 -15z"/>
<path d="M1510 395 c0 -9 5 -15 11 -13 6 2 11 8 11 13 0 5 -5 11 -11 13 -6 2
-11 -4 -11 -13z"/>
<path d="M2100 395 c0 -8 5 -15 10 -15 6 0 10 7 10 15 0 8 -4 15 -10 15 -5 0
-10 -7 -10 -15z"/>
<path d="M3860 385 c0 -18 -4 -23 -15 -19 -21 8 -45 -14 -45 -41 0 -29 18 -44
52 -42 25 2 27 5 30 65 2 45 0 62 -9 62 -7 0 -13 -11 -13 -25z m-3 -51 c8 -21
-13 -42 -28 -27 -13 13 -5 43 11 43 6 0 13 -7 17 -16z"/>
<path d="M1040 341 c0 -61 0 -61 29 -61 32 0 65 25 55 42 -4 6 -7 25 -8 42 -1
28 -4 31 -38 34 l-38 3 0 -60z m58 27 c-7 -19 -38 -22 -38 -4 0 10 9 16 21 16
12 0 19 -5 17 -12z m2 -53 c0 -8 -9 -15 -20 -15 -11 0 -20 7 -20 15 0 8 9 15
20 15 11 0 20 -7 20 -15z"/>
<path d="M1832 355 c-12 -25 -22 -53 -22 -62 0 -15 2 -15 18 0 23 21 58 22 66
1 3 -8 10 -13 15 -9 11 6 -30 107 -45 112 -6 2 -20 -17 -32 -42z m41 -10 c7
-16 -8 -29 -23 -20 -10 6 -2 35 10 35 4 0 10 -7 13 -15z"/>
<path d="M3029 363 c11 -21 24 -49 30 -63 l10 -25 0 25 c1 14 12 42 26 63 27
39 15 52 -15 15 l-17 -22 -14 22 c-25 40 -42 26 -20 -15z"/>
<path d="M3460 340 c0 -33 4 -60 10 -60 6 0 10 14 10 30 0 38 6 38 47 -2 l33
-32 0 62 c0 35 -4 62 -10 62 -5 0 -10 -17 -10 -37 l-1 -38 -32 38 c-18 20 -35
37 -39 37 -5 0 -8 -27 -8 -60z"/>
<path d="M2232 370 c-7 -12 -8 -20 -2 -20 5 0 10 -13 10 -29 0 -17 6 -31 16
-35 23 -9 40 5 20 16 -21 12 -21 45 2 51 15 4 15 5 -2 6 -12 1 -16 6 -12 16 8
22 -17 18 -32 -5z"/>
<path d="M2781 368 c-10 -16 -10 -23 -2 -26 6 -2 11 -15 11 -28 0 -25 25 -43
38 -29 4 4 1 10 -5 12 -20 7 -16 51 5 56 16 4 16 5 0 6 -10 0 -18 8 -18 16 0
22 -13 18 -29 -7z"/>
<path d="M1173 363 c-19 -4 -23 -11 -23 -44 0 -21 5 -39 10 -39 6 0 10 14 10
30 0 23 4 30 20 30 11 0 20 7 20 15 0 8 -3 14 -7 14 -5 -1 -18 -4 -30 -6z"/>
<path d="M1295 354 c-28 -29 -11 -64 33 -64 15 0 22 -5 19 -12 -2 -7 -14 -12
-26 -11 -11 2 -21 -2 -21 -7 0 -6 2 -10 4 -10 2 0 11 -3 19 -6 26 -9 47 24 47
74 0 45 -1 47 -30 49 -16 1 -36 -5 -45 -13z m53 -27 c2 -12 -3 -17 -17 -17
-12 0 -21 6 -21 13 0 31 32 34 38 4z"/>
<path d="M1406 349 c-20 -29 -5 -59 30 -59 16 0 24 -5 21 -12 -2 -7 -16 -12
-31 -10 -31 3 -33 -3 -6 -18 14 -8 26 -8 40 0 16 9 20 21 20 63 0 51 -1 53
-29 55 -21 2 -34 -4 -45 -19z m51 -15 c8 -20 -8 -36 -26 -25 -15 10 -8 41 9
41 6 0 13 -7 17 -16z"/>
<path d="M1583 363 c-19 -4 -23 -11 -23 -38 0 -42 17 -56 22 -18 2 17 10 29
21 31 13 3 17 -3 17 -27 0 -17 5 -31 10 -31 17 0 12 77 -6 84 -9 3 -16 5 -17
5 -1 -1 -12 -4 -24 -6z"/>
<path d="M1675 350 c-22 -25 -5 -60 30 -60 18 0 23 -4 18 -16 -4 -11 -13 -14
-29 -10 -14 4 -24 2 -24 -4 0 -18 60 -15 72 3 4 7 8 33 8 58 0 44 -1 46 -29
47 -17 0 -36 -7 -46 -18z m53 -23 c2 -11 -3 -17 -16 -17 -26 0 -34 11 -20 27
14 17 32 12 36 -10z"/>
<path d="M1939 354 c-11 -14 -9 -19 11 -35 l25 -19 -25 0 c-21 -1 -22 -2 -8
-10 20 -12 48 -3 48 16 0 8 -7 17 -15 20 -20 8 -19 24 1 24 8 0 12 5 9 10 -9
15 -31 12 -46 -6z"/>
<path d="M2023 354 c-17 -13 -17 -15 6 -34 23 -20 23 -20 2 -20 -12 0 -19 -4
-16 -10 10 -16 45 -12 52 6 4 10 -1 22 -10 29 -22 16 -21 23 1 27 15 3 15 4 0
10 -9 4 -24 0 -35 -8z"/>
<path d="M2155 354 c-17 -17 -12 -34 11 -34 8 0 14 -4 14 -10 0 -5 -9 -10 -21
-10 -11 0 -17 -4 -14 -10 10 -16 45 -12 52 6 4 10 -1 22 -10 29 -22 16 -21 23
1 27 16 3 16 4 0 10 -10 4 -24 1 -33 -8z"/>
<path d="M2328 359 c-21 -12 -24 -52 -5 -67 6 -6 24 -10 39 -9 26 2 28 5 28
42 0 35 -3 41 -22 42 -13 1 -31 -2 -40 -8z m39 -25 c8 -21 -13 -42 -28 -27
-13 13 -5 43 11 43 6 0 13 -7 17 -16z"/>
<path d="M2442 363 c-20 -4 -23 -10 -20 -41 3 -41 21 -46 26 -7 5 39 42 35 42
-5 0 -16 5 -30 10 -30 13 0 13 46 0 71 -11 19 -15 20 -58 12z"/>
<path d="M2546 355 c-9 -9 -16 -22 -16 -29 0 -20 38 -49 55 -43 22 9 19 26 -4
20 -10 -3 -22 0 -26 7 -9 15 15 42 32 35 9 -3 13 0 11 7 -7 20 -34 21 -52 3z"/>
<path d="M2636 354 c-9 -8 -16 -22 -16 -29 0 -17 27 -45 43 -45 7 0 19 5 27
10 12 8 9 10 -12 10 -16 0 -28 5 -28 10 0 6 14 10 30 10 33 0 35 3 20 31 -13
23 -43 25 -64 3z m44 -14 c0 -5 -7 -10 -15 -10 -8 0 -15 5 -15 10 0 6 7 10 15
10 8 0 15 -4 15 -10z"/>
<path d="M2872 354 c-12 -8 -22 -21 -22 -29 0 -17 27 -45 45 -45 18 0 45 27
45 45 0 14 -26 45 -38 45 -4 0 -18 -7 -30 -16z m42 -13 c9 -14 -4 -41 -19 -41
-18 0 -26 25 -12 39 13 13 24 14 31 2z"/>
<path d="M3129 349 c-18 -18 -19 -23 -6 -42 18 -28 40 -32 61 -12 20 21 20 39
0 59 -20 21 -30 20 -55 -5z m51 -23 c0 -8 -5 -18 -10 -21 -13 -8 -42 14 -34
26 9 15 44 10 44 -5z"/>
<path d="M3220 344 c0 -57 40 -83 74 -48 21 20 21 64 1 64 -10 0 -15 -10 -15
-31 0 -44 -34 -37 -38 9 -4 38 -22 44 -22 6z"/>
<path d="M3353 363 c-19 -4 -23 -11 -23 -38 0 -43 16 -54 23 -16 4 18 15 32
27 36 11 3 20 11 20 16 0 9 -8 10 -47 2z"/>
<path d="M3605 357 c-13 -10 -16 -21 -11 -40 7 -28 42 -45 59 -28 8 8 5 11
-11 11 -12 0 -22 5 -22 10 0 6 11 10 23 10 33 0 40 10 20 32 -19 21 -33 23
-58 5z m45 -17 c0 -5 -7 -10 -15 -10 -8 0 -15 5 -15 10 0 6 7 10 15 10 8 0 15
-4 15 -10z"/>
<path d="M3706 354 c-21 -20 -20 -37 2 -57 21 -19 48 -22 57 -7 3 6 -3 10 -14
10 -11 0 -23 5 -26 10 -3 6 5 10 19 10 32 0 40 14 20 34 -20 20 -38 20 -58 0z
m44 -14 c0 -5 -7 -10 -15 -10 -8 0 -15 5 -15 10 0 6 7 10 15 10 8 0 15 -4 15
-10z"/>
<path d="M3921 351 c-8 -15 -6 -22 12 -34 l22 -16 -25 -1 -25 -1 22 -11 c17
-8 26 -8 37 1 17 14 10 41 -10 41 -8 0 -14 5 -14 10 0 6 7 10 16 10 8 0 12 5
9 10 -10 16 -34 11 -44 -9z"/>
<path d="M1240 319 c0 -24 4 -38 10 -34 6 3 10 22 10 41 0 19 -4 34 -10 34 -5
0 -10 -18 -10 -41z"/>
<path d="M1510 320 c0 -22 5 -40 10 -40 6 0 10 18 10 40 0 22 -4 40 -10 40 -5
0 -10 -18 -10 -40z"/>
<path d="M2100 319 c0 -24 4 -38 10 -34 6 3 10 22 10 41 0 19 -4 34 -10 34 -5
0 -10 -18 -10 -41z"/>
<path d="M4010 295 c0 -9 5 -15 11 -13 6 2 11 8 11 13 0 5 -5 11 -11 13 -6 2
-11 -4 -11 -13z"/>
</g>
</svg>
